<svg xmlns="http://www.w3.org/2000/svg" width="48" height="48" viewBox="0 0 48 48">
  <path fill="currentColor" d="M13.112 7.317c6.689-1.28 13.15 3.106 14.43 9.795 1.279 6.689-3.106 13.15-9.795 14.43-6.69 1.279-13.15-3.106-14.43-9.795-1.28-6.69 3.106-13.15 9.795-14.43zm.386 2.02c-5.574 1.066-9.228 6.45-8.162 12.024 1.067 5.574 6.45 9.228 12.025 8.162 5.574-1.067 9.228-6.45 8.162-12.025-1.067-5.574-6.45-9.228-12.025-8.162zm2.558 4.218a3.764 3.764 0 011.414 7.393l-2.48.474.27 1.416 1.652-.316a.84.84 0 01.316 1.652l-1.652.315.151.787a.88.88 0 01-.7 1.03l-.14.028a.88.88 0 01-1.032-.7l-.151-.787-.88.17a.84.84 0 11-.316-1.652l.88-.169-.271-1.416-.84.162a.88.88 0 01-1.031-.7l-.03-.157a.88.88 0 01.7-1.03l.84-.162-.887-4.64a.88.88 0 01.7-1.03l3.487-.668zm.367 1.723l-2.517.482.723 3.775 2.516-.482a1.922 1.922 0 00-.722-3.775zM38.495 23.459a8.895 8.895 0 11-5.208 17.01 8.895 8.895 0 015.208-17.01zm-.434 1.417a7.412 7.412 0 10-4.34 14.175 7.412 7.412 0 004.34-14.175zm.21 3.553a2.714 2.714 0 11-1.59 5.191l-1.742-.534-.304.994 1.16.356a.606.606 0 11-.356 1.16l-1.16-.356-.168.553a.635.635 0 01-.794.421l-.1-.03a.635.635 0 01-.42-.794l.168-.553-.618-.188a.607.607 0 01.355-1.16l.618.189.304-.994-.59-.18a.635.635 0 01-.422-.794l.034-.11a.635.635 0 01.794-.422l.59.18.998-3.258a.635.635 0 01.794-.421l2.448.75zm-.347 1.223l-1.767-.542-.812 2.651 1.767.541a1.386 1.386 0 00.812-2.65z"/>
</svg>